<?xml version="1.0" encoding="utf-8"?>
<!-- Generator: Adobe Illustrator 27.2.0, SVG Export Plug-In . SVG Version: 6.00 Build 0)  -->
<svg version="1.1" id="Layer_1" xmlns="http://www.w3.org/2000/svg" xmlns:xlink="http://www.w3.org/1999/xlink" x="0px" y="0px"
	 viewBox="0 0 264 339" enable-background="new 0 0 264 339" xml:space="preserve">
<path fill="#F8F8F8" d="M257.886,219.884c-6.674-26.898-26.609-46.397-46.781-54.131c2.737-1.153,5.476-2.546,8.164-4.179
	c18.204-11.046,34.006-32.9,34.006-62.294c0-22.718-6.628-41.691-18.012-56.724C214.131,14.505,176.475,0,134.16,0
	c-34.149,0-63.017,9.077-84.15,25.793c-24.688,19.453-38.952,49.183-38.952,86.887H65.67h25.31
	c1.97-23.823,16.86-37.752,39.721-37.752c19.838,0,37.224,8.933,37.224,31.796c0,17.58-17.77,32.278-36.79,32.278
	c-0.338,0-0.624,0-0.962-0.049l-44.14-0.48l0.481,58.597h41.211c25.31,0,43.178,14.361,43.178,35.207
	c0,19.355-16.377,31.796-39.721,31.796c-24.831,0-43.178-11.912-45.148-37.751H2.123C2.604,296.301,54.717,339,133.152,339
	c46.877,0,84.823-15.898,106.676-42.267c13.112-15.802,20.413-35.35,20.413-57.493C260.24,232.469,259.424,225.984,257.886,219.884z
	"/>
</svg>
