<?xml version="1.0" encoding="utf-8"?>
<!-- Generator: Adobe Illustrator 27.2.0, SVG Export Plug-In . SVG Version: 6.00 Build 0)  -->
<svg version="1.1" id="Layer_1" xmlns="http://www.w3.org/2000/svg" xmlns:xlink="http://www.w3.org/1999/xlink" x="0px" y="0px"
	 viewBox="0 0 927 222" enable-background="new 0 0 927 222" xml:space="preserve">
<g>
	<path fill="#F87C56" d="M756.33,225.969c-13.948,0-26.788-2.984-38.512-8.945c-11.727-5.961-21.126-14.808-28.2-26.535
		c-7.079-11.722-10.614-26.178-10.614-43.364c0-17.181,3.433-31.638,10.31-43.365c6.871-11.722,16.172-20.569,27.899-26.535
		c11.722-5.96,24.762-8.945,39.118-8.945c14.96,0,28.151,3.084,39.576,9.249c11.418,6.17,20.416,14.963,26.988,26.383
		c6.567,11.424,9.857,25.018,9.857,40.787c0,2.023-0.054,4.199-0.153,6.52c-0.104,2.326-0.354,4.699-0.757,7.126H725.703
		c0.606,7.278,2.375,13.04,5.306,17.285c2.929,4.246,6.567,7.33,10.918,9.25c4.346,1.923,8.642,2.88,12.887,2.88
		c5.862,0,10.814-1.212,14.861-3.639c4.042-2.427,7.173-6.165,9.399-11.22h50.036c-2.226,9.505-6.671,18.299-13.342,26.382
		c-6.671,8.088-15.012,14.555-25.017,19.408C780.743,223.544,769.266,225.969,756.33,225.969z M725.703,132.266h58.83
		c0-8.287-2.728-14.756-8.187-19.408c-5.459-4.648-12.333-6.974-20.622-6.974c-8.088,0-14.759,2.378-20.013,7.126
		C730.45,117.761,727.115,124.182,725.703,132.266z"/>
	<path fill="#001489" d="M0.299,221.837V9.538h84.313c14.558,0,27.699,2.63,39.427,7.887c11.723,5.259,20.973,12.841,27.751,22.746
		c6.771,9.908,10.16,21.737,10.16,35.484c0,13.549-3.29,25.324-9.858,35.333c-6.573,10.006-15.671,17.742-27.296,23.199
		c-11.629,5.459-25.02,8.191-40.184,8.191H48.218v79.46H0.299z M48.218,101.433h35.18c11.322,0,19.154-2.578,23.506-7.735
		c4.347-5.155,6.521-11.169,6.521-18.044c0-6.469-2.174-12.285-6.521-17.44c-4.351-5.155-12.183-7.733-23.506-7.733h-35.18V101.433z
		"/>
	<path fill="#001489" d="M162.566,221.837v-81.306c0-38.181,30.959-69.137,69.14-69.151c13.008-0.005,23.274-0.009,25.485-0.009
		l0,47.794c-5.717-0.86-11.284-2.18-17.105-1.849c-4.862,0.276-9.768,1.077-14.3,2.916c-2.87,1.165-5.576,2.763-7.869,4.856
		c-5.764,5.262-8.643,13.952-8.643,26.083v70.666H162.566z"/>
	<path fill="#0091DC" d="M292.944,58.063c-7.886,0-14.663-2.83-20.321-8.492c-5.662-5.658-8.492-12.433-8.492-20.32
		c0-7.887,2.83-14.657,8.492-20.32c5.658-5.658,12.434-8.492,20.321-8.492c8.287,0,15.164,2.835,20.624,8.492
		c5.46,5.663,8.188,12.433,8.188,20.32c0,7.886-2.728,14.662-8.188,20.32C308.108,55.233,301.231,58.063,292.944,58.063z"/>
	<rect x="269.59" y="71.407" fill="#001489" width="46.706" height="150.43"/>
	<path fill="#001489" d="M328.783,221.837V71.407h46.707c0,0,0,10.373,0,10.514c-0.001-0.246,1.183-1.062,1.404-1.252
		c0.516-0.444,1.041-0.879,1.574-1.303c1.065-0.848,2.163-1.655,3.291-2.417c4.532-3.06,9.606-5.332,14.89-6.802
		c2.708-0.753,5.469-1.31,8.253-1.696c2.868-0.398,5.759-0.618,8.652-0.696c0.172-0.005,0.343-0.009,0.515-0.012
		c1.936-0.042,3.873-0.031,5.809,0.018c0.297,0.008,0.593,0.016,0.889,0.025c13.88,0.436,27.478,3.608,37.842,13.443
		c1.509,1.432,2.917,2.968,4.225,4.586c9.707,12.032,14.558,27.649,14.558,46.856v89.167H430.99v-83.403
		c0-9.502-2.325-17.136-6.974-22.897c-4.653-5.764-11.629-8.643-20.928-8.643c-9.099,0-15.973,2.983-20.621,8.945
		c-4.656,5.967-6.976,13.497-6.976,22.595v83.403H328.783z"/>
	<path fill="#F87C56" d="M918.821,153.137c-5.259-5.959-11.978-10.558-20.176-13.797c-8.178-3.219-17.137-6.059-26.835-8.479
		c-3.639-1.02-7.679-2.02-12.138-3.039c-4.439-1.02-8.339-2.579-11.678-4.699c-3.319-2.12-4.999-4.999-4.999-8.638
		c0-4.459,1.719-7.539,5.159-9.258c3.439-1.72,7.379-2.58,11.838-2.58c6.059,0,11.118,1.36,15.157,4.099
		c4.039,2.719,6.559,7.119,7.578,13.177H926.1c-2.02-17.177-8.859-30.174-20.476-38.953c-11.618-8.798-26.335-13.197-44.132-13.197
		c-11.318,0-21.737,1.82-31.235,5.459c-4.679,1.799-8.878,3.999-12.618,6.619c5.899,5.419,10.958,11.758,15.117,18.977
		c7.439,12.938,11.198,28.355,11.198,45.852c0,2.1-0.04,4.379-0.16,6.979c-0.1,2.38-0.34,4.819-0.72,7.259
		c3.439,1,6.939,1.96,10.538,2.88c3.44,0.8,7.439,1.82,11.978,3.02c4.559,1.22,8.539,2.88,11.978,4.999
		c3.439,2.14,5.159,5.019,5.159,8.658c0,4.439-1.88,7.619-5.619,9.538c-3.739,1.94-8.018,2.899-12.878,2.899
		c-5.859,0-10.731-1.48-14.984-4.998c-4.425-3.66-6.234-7.146-8.671-12.899h-0.02l-0.5,2.18
		c-2.58,10.998-7.759,21.276-15.398,30.514c-1.96,2.38-4.059,4.639-6.279,6.779c4.299,2.819,9.018,5.159,14.158,7.079
		c10.618,3.939,21.376,5.919,32.294,5.919c11.118,0,21.376-1.82,30.794-5.459c9.399-3.64,16.977-8.959,22.736-15.937
		c5.759-6.979,8.638-15.417,8.638-25.315C926.8,167.654,924.081,159.116,918.821,153.137z"/>
	<path fill="#F87C56" d="M551.102,109.927v59.449c0,5.039,1.06,8.439,3.179,10.158c2.12,1.72,5.699,2.579,10.759,2.579h18.856
		v39.713H558.06c-17.777,0-31.175-4.339-40.173-13.038c-8.998-8.678-13.498-22.036-13.498-40.033v-58.829h-15.777V71.414h15.777
		V34.101h46.712v37.313h76.756c-0.5,0.22-1,0.46-1.48,0.7c-12.798,6.279-23.136,15.817-30.755,28.375
		c-1.799,2.959-3.379,6.119-4.779,9.438H551.102z"/>
	<path fill="#F87C56" d="M705.274,71.374c-10.818,6.659-19.676,15.817-26.375,27.235c-3.359,5.739-6.019,12.058-7.939,18.937
		c-8.318,0.86-14.757,3.38-19.316,7.539c-5.759,5.259-8.639,13.957-8.639,26.095v70.667h-46.712v-81.305
		c0-3.939,0.32-7.779,0.98-11.538c0.9-5.439,2.44-10.638,4.539-15.557c0.02-0.04,0.04-0.08,0.06-0.12c0.34-0.8,0.7-1.62,1.08-2.4
		c0.16-0.34,0.32-0.66,0.48-1c0.84-1.76,1.78-3.439,2.759-5.059c6.739-11.158,15.737-19.656,27.095-25.235
		c9.478-4.659,19.277-7.419,29.115-8.219h1.64c0.46-0.02,0.92-0.04,1.38-0.04H705.274z"/>
	<path fill="#F87C56" d="M597.273,129.004c0.9-5.439,2.44-10.638,4.539-15.557C599.833,118.205,598.293,123.404,597.273,129.004z"/>
</g>
</svg>
