<?xml version="1.0" encoding="UTF-8"?>
<svg xmlns="http://www.w3.org/2000/svg" xmlns:xlink="http://www.w3.org/1999/xlink" width="300px" height="72px" viewBox="0 0 300 72" version="1.1">
<g id="surface1">
<path style=" stroke:none;fill-rule:nonzero;fill:rgb(97.254902%,48.627451%,33.72549%);fill-opacity:1;" d="M 244.757812 73.296875 C 240.257812 73.296875 236.085938 72.324219 232.296875 70.410156 C 228.511719 68.464844 225.46875 65.609375 223.171875 61.816406 C 220.875 58.023438 219.742188 53.320312 219.742188 47.742188 C 219.742188 42.164062 220.839844 37.492188 223.074219 33.664062 C 225.308594 29.871094 228.316406 26.984375 232.105469 25.070312 C 235.890625 23.125 240.128906 22.183594 244.757812 22.183594 C 249.613281 22.183594 253.882812 23.1875 257.574219 25.167969 C 261.261719 27.179688 264.175781 30.03125 266.3125 33.730469 C 268.445312 37.425781 269.515625 41.835938 269.515625 46.960938 C 269.515625 47.609375 269.480469 48.324219 269.449219 49.070312 C 269.417969 49.816406 269.320312 50.59375 269.191406 51.371094 L 234.855469 51.371094 C 235.046875 53.742188 235.632812 55.589844 236.570312 56.984375 C 237.507812 58.347656 238.707031 59.351562 240.097656 59.96875 C 241.488281 60.582031 242.878906 60.90625 244.273438 60.90625 C 246.179688 60.90625 247.765625 60.519531 249.09375 59.742188 C 250.386719 58.960938 251.425781 57.730469 252.136719 56.109375 L 268.316406 56.109375 C 267.605469 59.1875 266.148438 62.042969 264.011719 64.671875 C 261.84375 67.296875 259.160156 69.40625 255.921875 70.960938 C 252.652344 72.488281 248.964844 73.296875 244.757812 73.296875 Z M 234.855469 42.90625 L 253.882812 42.90625 C 253.882812 40.214844 253.007812 38.109375 251.230469 36.617188 C 249.449219 35.125 247.25 34.347656 244.5625 34.347656 C 241.941406 34.347656 239.773438 35.125 238.089844 36.648438 C 236.40625 38.207031 235.308594 40.28125 234.855469 42.90625 Z M 234.855469 42.90625 "/>
<path style=" stroke:none;fill-rule:nonzero;fill:rgb(97.254902%,97.254902%,97.254902%);fill-opacity:1;" d="M 0.0976562 71.933594 L 0.0976562 3.082031 L 27.378906 3.082031 C 32.105469 3.082031 36.34375 3.925781 40.128906 5.644531 C 43.914062 7.363281 46.925781 9.792969 49.125 13.003906 C 51.328125 16.214844 52.425781 20.042969 52.425781 24.519531 C 52.425781 28.898438 51.359375 32.722656 49.222656 35.96875 C 47.085938 39.210938 44.140625 41.707031 40.386719 43.492188 C 36.632812 45.277344 32.296875 46.152344 27.378906 46.152344 L 15.597656 46.152344 L 15.597656 71.933594 Z M 15.597656 32.886719 L 26.992188 32.886719 C 30.648438 32.886719 33.203125 32.042969 34.59375 30.390625 C 35.988281 28.703125 36.699219 26.757812 36.699219 24.550781 C 36.699219 22.441406 35.988281 20.5625 34.59375 18.90625 C 33.171875 17.222656 30.648438 16.410156 26.992188 16.410156 L 15.597656 16.410156 C 15.597656 16.378906 15.597656 32.886719 15.597656 32.886719 Z M 15.597656 32.886719 "/>
<path style=" stroke:none;fill-rule:nonzero;fill:rgb(97.254902%,97.254902%,97.254902%);fill-opacity:1;" d="M 52.621094 71.933594 L 52.621094 45.566406 C 52.621094 33.179688 62.652344 23.15625 74.984375 23.125 C 79.191406 23.125 82.523438 23.125 83.234375 23.125 L 83.234375 38.628906 C 81.390625 38.335938 79.578125 37.914062 77.703125 38.042969 C 76.117188 38.140625 74.53125 38.398438 73.074219 38.984375 C 72.136719 39.371094 71.261719 39.890625 70.519531 40.574219 C 68.640625 42.292969 67.734375 45.113281 67.734375 49.039062 L 67.734375 71.96875 L 52.621094 71.96875 Z M 52.621094 71.933594 "/>
<path style=" stroke:none;fill-rule:nonzero;fill:rgb(0%,56.862745%,86.27451%);fill-opacity:1;" d="M 94.789062 18.84375 C 92.234375 18.84375 90.03125 17.933594 88.21875 16.085938 C 86.375 14.238281 85.46875 12.066406 85.46875 9.503906 C 85.46875 6.941406 86.375 4.734375 88.21875 2.917969 C 90.066406 1.070312 92.234375 0.164062 94.789062 0.164062 C 97.476562 0.164062 99.707031 1.070312 101.457031 2.917969 C 103.234375 4.765625 104.109375 6.941406 104.109375 9.503906 C 104.109375 12.066406 103.234375 14.269531 101.457031 16.085938 C 99.707031 17.902344 97.476562 18.84375 94.789062 18.84375 Z M 94.789062 18.84375 "/>
<path style=" stroke:none;fill-rule:nonzero;fill:rgb(97.254902%,97.254902%,97.254902%);fill-opacity:1;" d="M 87.25 23.15625 L 102.363281 23.15625 L 102.363281 71.933594 L 87.25 71.933594 Z M 87.25 23.15625 "/>
<path style=" stroke:none;fill-rule:nonzero;fill:rgb(97.254902%,97.254902%,97.254902%);fill-opacity:1;" d="M 106.40625 71.933594 L 106.40625 23.15625 L 121.519531 23.15625 C 121.519531 23.15625 121.519531 26.53125 121.519531 26.5625 C 121.519531 26.496094 121.910156 26.207031 121.972656 26.140625 C 122.136719 26.011719 122.296875 25.847656 122.492188 25.71875 C 122.847656 25.460938 123.203125 25.167969 123.558594 24.941406 C 125.015625 23.933594 126.667969 23.222656 128.382812 22.734375 C 129.253906 22.476562 130.160156 22.3125 131.066406 22.183594 C 132.007812 22.054688 132.945312 21.988281 133.882812 21.957031 C 133.949219 21.957031 133.980469 21.957031 134.046875 21.957031 C 134.660156 21.957031 135.308594 21.957031 135.921875 21.957031 C 136.019531 21.957031 136.117188 21.957031 136.214844 21.957031 C 140.710938 22.085938 145.113281 23.125 148.445312 26.300781 C 148.933594 26.757812 149.386719 27.277344 149.804688 27.792969 C 152.945312 31.6875 154.53125 36.746094 154.53125 43.003906 L 154.53125 71.933594 L 139.480469 71.933594 L 139.480469 44.886719 C 139.480469 41.804688 138.738281 39.339844 137.21875 37.460938 C 135.695312 35.578125 133.460938 34.671875 130.453125 34.671875 C 127.507812 34.671875 125.273438 35.644531 123.785156 37.558594 C 122.265625 39.503906 121.519531 41.933594 121.519531 44.886719 L 121.519531 71.933594 Z M 106.40625 71.933594 "/>
<path style=" stroke:none;fill-rule:nonzero;fill:rgb(97.254902%,48.627451%,33.72549%);fill-opacity:1;" d="M 297.347656 49.652344 C 295.632812 47.707031 293.460938 46.214844 290.808594 45.179688 C 288.15625 44.140625 285.273438 43.199219 282.136719 42.421875 C 280.972656 42.097656 279.644531 41.773438 278.21875 41.449219 C 276.796875 41.125 275.535156 40.605469 274.433594 39.925781 C 273.367188 39.242188 272.816406 38.300781 272.816406 37.136719 C 272.816406 35.675781 273.367188 34.703125 274.5 34.117188 C 275.597656 33.566406 276.894531 33.277344 278.316406 33.277344 C 280.292969 33.277344 281.910156 33.730469 283.234375 34.605469 C 284.53125 35.480469 285.371094 36.90625 285.695312 38.886719 L 299.742188 38.886719 C 299.09375 33.308594 296.859375 29.09375 293.105469 26.238281 C 289.351562 23.382812 284.59375 21.957031 278.835938 21.957031 C 275.179688 21.957031 271.8125 22.539062 268.738281 23.742188 C 267.21875 24.324219 265.859375 25.039062 264.660156 25.882812 C 266.570312 27.632812 268.21875 29.707031 269.546875 32.042969 C 271.941406 36.226562 273.171875 41.253906 273.171875 46.929688 C 273.171875 47.609375 273.171875 48.355469 273.105469 49.199219 C 273.074219 49.976562 273.007812 50.757812 272.878906 51.566406 C 273.980469 51.890625 275.113281 52.214844 276.277344 52.507812 C 277.378906 52.765625 278.671875 53.09375 280.160156 53.480469 C 281.652344 53.871094 282.914062 54.421875 284.046875 55.101562 C 285.144531 55.785156 285.726562 56.722656 285.726562 57.925781 C 285.726562 59.351562 285.113281 60.390625 283.914062 61.003906 C 282.71875 61.621094 281.328125 61.945312 279.742188 61.945312 C 277.832031 61.945312 276.277344 61.460938 274.886719 60.324219 C 273.460938 59.125 272.878906 58.023438 272.070312 56.140625 L 271.910156 56.855469 C 271.066406 60.421875 269.386719 63.761719 266.925781 66.746094 C 266.277344 67.523438 265.597656 68.238281 264.886719 68.953125 C 266.277344 69.859375 267.800781 70.636719 269.480469 71.253906 C 272.914062 72.519531 276.40625 73.167969 279.933594 73.167969 C 283.527344 73.167969 286.859375 72.582031 289.902344 71.382812 C 292.945312 70.214844 295.40625 68.464844 297.25 66.226562 C 299.125 63.957031 300.03125 61.234375 300.03125 58.023438 C 299.933594 54.390625 299.0625 51.601562 297.347656 49.652344 Z M 297.347656 49.652344 "/>
<path style=" stroke:none;fill-rule:nonzero;fill:rgb(97.254902%,48.627451%,33.72549%);fill-opacity:1;" d="M 178.347656 35.644531 L 178.347656 54.90625 C 178.347656 56.53125 178.707031 57.632812 179.386719 58.214844 C 180.066406 58.765625 181.230469 59.058594 182.878906 59.058594 L 188.996094 59.058594 L 188.996094 71.933594 L 180.648438 71.933594 C 174.886719 71.933594 170.550781 70.539062 167.636719 67.71875 C 164.726562 64.898438 163.269531 60.582031 163.269531 54.746094 L 163.269531 35.675781 L 158.15625 35.675781 L 158.15625 23.15625 L 163.269531 23.15625 L 163.269531 11.058594 L 178.382812 11.058594 L 178.382812 23.15625 L 203.234375 23.15625 C 203.074219 23.222656 202.914062 23.320312 202.75 23.382812 C 198.609375 25.425781 195.273438 28.507812 192.78125 32.59375 C 192.199219 33.566406 191.683594 34.574219 191.230469 35.644531 Z M 178.347656 35.644531 "/>
<path style=" stroke:none;fill-rule:nonzero;fill:rgb(97.254902%,48.627451%,33.72549%);fill-opacity:1;" d="M 228.253906 23.15625 C 224.757812 25.328125 221.878906 28.28125 219.707031 31.976562 C 218.609375 33.828125 217.765625 35.902344 217.152344 38.109375 C 214.464844 38.398438 212.363281 39.210938 210.90625 40.539062 C 209.027344 42.257812 208.121094 45.082031 208.121094 49.003906 L 208.121094 71.933594 L 193.007812 71.933594 L 193.007812 45.566406 C 193.007812 44.300781 193.105469 43.039062 193.332031 41.835938 C 193.625 40.085938 194.109375 38.398438 194.789062 36.777344 C 194.789062 36.777344 194.789062 36.746094 194.820312 36.746094 C 194.917969 36.488281 195.046875 36.226562 195.179688 35.96875 C 195.242188 35.871094 195.273438 35.742188 195.339844 35.644531 C 195.597656 35.058594 195.921875 34.539062 196.246094 33.988281 C 198.414062 30.355469 201.328125 27.601562 205.015625 25.816406 C 208.089844 24.292969 211.261719 23.417969 214.433594 23.15625 L 214.953125 23.15625 C 215.113281 23.15625 215.242188 23.15625 215.40625 23.15625 Z M 228.253906 23.15625 "/>
<path style=" stroke:none;fill-rule:nonzero;fill:rgb(97.254902%,48.627451%,33.72549%);fill-opacity:1;" d="M 193.300781 41.835938 C 193.59375 40.085938 194.078125 38.398438 194.757812 36.777344 C 194.109375 38.335938 193.625 40.023438 193.300781 41.835938 Z M 193.300781 41.835938 "/>
</g>
</svg>
