<?xml version="1.0" encoding="utf-8"?>
<!-- Generator: Adobe Illustrator 27.2.0, SVG Export Plug-In . SVG Version: 6.00 Build 0)  -->
<svg version="1.1" id="Layer_1" xmlns="http://www.w3.org/2000/svg" xmlns:xlink="http://www.w3.org/1999/xlink" x="0px" y="0px"
	 viewBox="0 0 927 222" style="enable-background:new 0 0 927 222;" xml:space="preserve">
<style type="text/css">
	.st0{fill:#F87C56;}
	.st1{fill:#F8F8F8;}
	.st2{fill:#0091DC;}
</style>
<g>
	<path class="st0" d="M756.3,226c-13.9,0-26.8-3-38.5-8.9c-11.7-6-21.1-14.8-28.2-26.5c-7.1-11.7-10.6-26.2-10.6-43.4
		c0-17.2,3.4-31.6,10.3-43.4c6.9-11.7,16.2-20.6,27.9-26.5c11.7-6,24.8-8.9,39.1-8.9c15,0,28.2,3.1,39.6,9.2
		c11.4,6.2,20.4,15,27,26.4c6.6,11.4,9.9,25,9.9,40.8c0,2-0.1,4.2-0.2,6.5c-0.1,2.3-0.4,4.7-0.8,7.1H725.7c0.6,7.3,2.4,13,5.3,17.3
		c2.9,4.2,6.6,7.3,10.9,9.2c4.3,1.9,8.6,2.9,12.9,2.9c5.9,0,10.8-1.2,14.9-3.6c4-2.4,7.2-6.2,9.4-11.2h50
		c-2.2,9.5-6.7,18.3-13.3,26.4c-6.7,8.1-15,14.6-25,19.4C780.7,223.5,769.3,226,756.3,226z M725.7,132.3h58.8
		c0-8.3-2.7-14.8-8.2-19.4c-5.5-4.6-12.3-7-20.6-7c-8.1,0-14.8,2.4-20,7.1C730.5,117.8,727.1,124.2,725.7,132.3z"/>
	<path class="st1" d="M0.3,221.8V9.5h84.3c14.6,0,27.7,2.6,39.4,7.9c11.7,5.3,21,12.8,27.8,22.7c6.8,9.9,10.2,21.7,10.2,35.5
		c0,13.5-3.3,25.3-9.9,35.3c-6.6,10-15.7,17.7-27.3,23.2c-11.6,5.5-25,8.2-40.2,8.2H48.2v79.5L0.3,221.8L0.3,221.8z M48.2,101.4
		h35.2c11.3,0,19.2-2.6,23.5-7.7c4.3-5.2,6.5-11.2,6.5-18c0-6.5-2.2-12.3-6.5-17.4c-4.4-5.2-12.2-7.7-23.5-7.7H48.2
		C48.2,50.5,48.2,101.4,48.2,101.4z"/>
	<path class="st1" d="M162.6,221.8v-81.3c0-38.2,31-69.1,69.1-69.2c13,0,23.3,0,25.5,0v47.8c-5.7-0.9-11.3-2.2-17.1-1.8
		c-4.9,0.3-9.8,1.1-14.3,2.9c-2.9,1.2-5.6,2.8-7.9,4.9c-5.8,5.3-8.6,14-8.6,26.1v70.7H162.6z"/>
	<path class="st2" d="M292.9,58.1c-7.9,0-14.7-2.8-20.3-8.5c-5.7-5.7-8.5-12.4-8.5-20.3s2.8-14.7,8.5-20.3
		c5.7-5.7,12.4-8.5,20.3-8.5c8.3,0,15.2,2.8,20.6,8.5c5.5,5.7,8.2,12.4,8.2,20.3c0,7.9-2.7,14.7-8.2,20.3
		C308.1,55.2,301.2,58.1,292.9,58.1z"/>
	<rect x="269.6" y="71.4" class="st1" width="46.7" height="150.4"/>
	<path class="st1" d="M328.8,221.8V71.4h46.7c0,0,0,10.4,0,10.5c0-0.2,1.2-1.1,1.4-1.3c0.5-0.4,1-0.9,1.6-1.3
		c1.1-0.8,2.2-1.7,3.3-2.4c4.5-3.1,9.6-5.3,14.9-6.8c2.7-0.8,5.5-1.3,8.3-1.7c2.9-0.4,5.8-0.6,8.7-0.7c0.2,0,0.3,0,0.5,0
		c1.9,0,3.9,0,5.8,0c0.3,0,0.6,0,0.9,0c13.9,0.4,27.5,3.6,37.8,13.4c1.5,1.4,2.9,3,4.2,4.6c9.7,12,14.6,27.6,14.6,46.9v89.2H431
		v-83.4c0-9.5-2.3-17.1-7-22.9c-4.7-5.8-11.6-8.6-20.9-8.6c-9.1,0-16,3-20.6,8.9c-4.7,6-7,13.5-7,22.6v83.4L328.8,221.8L328.8,221.8
		z"/>
	<path class="st0" d="M918.8,153.1c-5.3-6-12-10.6-20.2-13.8c-8.2-3.2-17.1-6.1-26.8-8.5c-3.6-1-7.7-2-12.1-3
		c-4.4-1-8.3-2.6-11.7-4.7c-3.3-2.1-5-5-5-8.6c0-4.5,1.7-7.5,5.2-9.3c3.4-1.7,7.4-2.6,11.8-2.6c6.1,0,11.1,1.4,15.2,4.1
		c4,2.7,6.6,7.1,7.6,13.2h43.4c-2-17.2-8.9-30.2-20.5-39c-11.6-8.8-26.3-13.2-44.1-13.2c-11.3,0-21.7,1.8-31.2,5.5
		c-4.7,1.8-8.9,4-12.6,6.6c5.9,5.4,11,11.8,15.1,19c7.4,12.9,11.2,28.4,11.2,45.9c0,2.1,0,4.4-0.2,7c-0.1,2.4-0.3,4.8-0.7,7.3
		c3.4,1,6.9,2,10.5,2.9c3.4,0.8,7.4,1.8,12,3c4.6,1.2,8.5,2.9,12,5c3.4,2.1,5.2,5,5.2,8.7c0,4.4-1.9,7.6-5.6,9.5
		c-3.7,1.9-8,2.9-12.9,2.9c-5.9,0-10.7-1.5-15-5c-4.4-3.7-6.2-7.1-8.7-12.9h0l-0.5,2.2c-2.6,11-7.8,21.3-15.4,30.5
		c-2,2.4-4.1,4.6-6.3,6.8c4.3,2.8,9,5.2,14.2,7.1c10.6,3.9,21.4,5.9,32.3,5.9c11.1,0,21.4-1.8,30.8-5.5c9.4-3.6,17-9,22.7-15.9
		c5.8-7,8.6-15.4,8.6-25.3C926.8,167.7,924.1,159.1,918.8,153.1z"/>
	<path class="st0" d="M551.1,109.9v59.4c0,5,1.1,8.4,3.2,10.2c2.1,1.7,5.7,2.6,10.8,2.6h18.9v39.7h-25.8c-17.8,0-31.2-4.3-40.2-13
		c-9-8.7-13.5-22-13.5-40v-58.8h-15.8V71.4h15.8V34.1h46.7v37.3h76.8c-0.5,0.2-1,0.5-1.5,0.7c-12.8,6.3-23.1,15.8-30.8,28.4
		c-1.8,3-3.4,6.1-4.8,9.4H551.1z"/>
	<path class="st0" d="M705.3,71.4c-10.8,6.7-19.7,15.8-26.4,27.2c-3.4,5.7-6,12.1-7.9,18.9c-8.3,0.9-14.8,3.4-19.3,7.5
		c-5.8,5.3-8.6,14-8.6,26.1v70.7h-46.7v-81.3c0-3.9,0.3-7.8,1-11.5c0.9-5.4,2.4-10.6,4.5-15.6c0,0,0-0.1,0.1-0.1
		c0.3-0.8,0.7-1.6,1.1-2.4c0.2-0.3,0.3-0.7,0.5-1c0.8-1.8,1.8-3.4,2.8-5.1c6.7-11.2,15.7-19.7,27.1-25.2c9.5-4.7,19.3-7.4,29.1-8.2
		h1.6c0.5,0,0.9,0,1.4,0L705.3,71.4L705.3,71.4z"/>
	<path class="st0" d="M597.3,129c0.9-5.4,2.4-10.6,4.5-15.6C599.8,118.2,598.3,123.4,597.3,129z"/>
</g>
</svg>
