<svg width="47" height="47" viewBox="0 0 47 47" fill="none" xmlns="http://www.w3.org/2000/svg">
<path d="M7.92332 38.641L7.92237 38.6401C3.62472 34.3462 1.5 29.2503 1.5 23.2817C1.5 17.3135 3.62446 12.2212 7.92285 7.92285C12.2173 3.62839 17.3137 1.5 23.2817 1.5C29.5934 1.5 34.7536 3.64273 38.8666 7.90391C43.0076 12.1983 45.0634 17.2964 45.0634 23.2817C45.0634 29.2676 43.0072 34.3696 38.8666 38.6595L38.8661 38.66C34.7538 42.9243 29.5941 45.0634 23.2817 45.0634C17.3131 45.0634 12.2171 42.9387 7.92332 38.641Z" stroke="#001489" stroke-width="3"/>
<path d="M19.8337 27.7867C19.9862 29.83 21.3879 30.7762 23.2798 30.7762C25.0591 30.7762 26.3119 29.7923 26.3119 28.258C26.3119 26.6068 24.9465 25.4645 23.0147 25.4645H19.87L19.8337 20.8239L23.2071 20.8616C24.6851 20.8993 26.0868 19.7194 26.0868 18.3057C26.0868 16.4962 24.7613 15.7875 23.2471 15.7875C21.5041 15.7875 20.3675 16.8883 20.2149 18.7769H14.1143C14.1143 13.2316 17.8655 9.8501 23.5085 9.8501C28.4726 9.8501 32.6014 12.5643 32.6014 17.7176C32.6014 20.3904 31.0108 22.2791 29.3804 22.9878C31.2759 23.7342 33.1315 25.8981 33.1315 28.8083C33.1315 33.4904 29.1516 36.7136 23.4323 36.7136C17.713 36.7136 13.468 33.3321 13.4316 27.7867H19.8337Z" fill="#F87C56"/>
</svg>
