<svg width="44" height="44" viewBox="0 0 44 44" fill="none" xmlns="http://www.w3.org/2000/svg">
<path d="M7.41821 35.7187L7.41726 35.7177C3.45635 31.7604 1.5 27.0675 1.5 21.568C1.5 16.0689 3.45609 11.3794 7.41773 7.41773C11.3757 3.45972 16.0691 1.5 21.568 1.5C27.3867 1.5 32.1377 3.4739 35.9258 7.39831C39.7424 11.356 41.6359 16.0515 41.6359 21.568C41.6359 27.0848 39.7421 31.7837 35.9262 35.7371L35.9258 35.7376C32.1382 39.6653 27.3875 41.6359 21.568 41.6359C16.0685 41.6359 11.3756 39.6796 7.41821 35.7187Z" stroke="#D9D9D9" stroke-width="3"/>
<path d="M18.3736 25.7414C18.5149 27.6342 19.8134 28.5107 21.5661 28.5107C23.2145 28.5107 24.3751 27.5993 24.3751 26.1779C24.3751 24.6483 23.1102 23.5901 21.3205 23.5901H18.4073L18.3736 19.2911L21.4988 19.326C22.868 19.3609 24.1665 18.2678 24.1665 16.9582C24.1665 15.2819 22.9386 14.6254 21.5358 14.6254C19.9211 14.6254 18.8682 15.6451 18.7269 17.3948H13.0753C13.0753 12.2576 16.5503 9.125 21.778 9.125C26.3767 9.125 30.2015 11.6395 30.2015 16.4134C30.2015 18.8895 28.7281 20.6391 27.2177 21.2957C28.9737 21.9871 30.6927 23.9917 30.6927 26.6878C30.6927 31.0252 27.0057 34.0111 21.7074 34.0111C16.4091 34.0111 12.4765 30.8785 12.4429 25.7414H18.3736Z" fill="#F87C56"/>
</svg>
