<svg width="21" height="25" viewBox="0 0 21 25" fill="none" xmlns="http://www.w3.org/2000/svg">
<path d="M17.9032 -1.35364e-07C19.6135 -6.06047e-08 21 1.38647 21 3.09677C21 4.80708 19.6135 6.19355 17.9032 6.19355L3.09677 6.19355C1.38647 6.19355 -2.10124e-07 4.80707 -1.35364e-07 3.09677C-6.06047e-08 1.38647 1.38647 -8.57335e-07 3.09677 -7.82575e-07L17.9032 -1.35364e-07Z" fill="#F87C56"/>
<path d="M17.9032 18C19.6135 18 21 19.3865 21 21.0968C21 22.8071 19.6135 24.1935 17.9032 24.1935L3.09677 24.1935C1.38647 24.1935 -2.10124e-07 22.8071 -1.35364e-07 21.0968C-6.06047e-08 19.3865 1.38647 18 3.09677 18L17.9032 18Z" fill="#F87C56"/>
<path d="M17.9032 9C19.6135 9 21 10.3865 21 12.0968C21 13.8071 19.6135 15.1935 17.9032 15.1935L3.09677 15.1935C1.38647 15.1935 -2.10124e-07 13.8071 -1.35364e-07 12.0968C-6.06047e-08 10.3865 1.38647 9 3.09677 9L17.9032 9Z" fill="#D9D9D9"/>
</svg>
