<svg width="26" height="31" viewBox="0 0 26 31" fill="none" xmlns="http://www.w3.org/2000/svg">
<path d="M22.2054 0.577637C24.3011 0.577637 26 2.27655 26 4.37228C26 6.468 24.3011 8.16691 22.2054 8.16691L4.06224 8.16691C1.96652 8.16691 0.267605 6.468 0.267605 4.37227C0.267605 2.27655 1.96652 0.577636 4.06224 0.577636L22.2054 0.577637Z" fill="#F87C56"/>
<path d="M22.2054 22.6338C24.3011 22.6338 26 24.3327 26 26.4284C26 28.5241 24.3011 30.2231 22.2054 30.2231L4.06224 30.2231C1.96652 30.2231 0.267605 28.5241 0.267605 26.4284C0.267605 24.3327 1.96652 22.6338 4.06224 22.6338L22.2054 22.6338Z" fill="#F87C56"/>
<path d="M22.2054 11.6055C24.3011 11.6055 26 13.3044 26 15.4001C26 17.4958 24.3011 19.1947 22.2054 19.1947L4.06224 19.1947C1.96652 19.1947 0.267605 17.4958 0.267605 15.4001C0.267605 13.3044 1.96652 11.6055 4.06224 11.6055L22.2054 11.6055Z" fill="#2BA4E2"/>
</svg>
